<?xml version="1.0" standalone="no"?>
<!DOCTYPE svg PUBLIC "-//W3C//DTD SVG 20010904//EN"
 "http://www.w3.org/TR/2001/REC-SVG-20010904/DTD/svg10.dtd">
<svg version="1.0" xmlns="http://www.w3.org/2000/svg"
 width="1024.000000pt" height="1024.000000pt" viewBox="0 0 1024.000000 1024.000000"
 preserveAspectRatio="xMidYMid meet">
<metadata>
Created by potrace 1.14, written by Peter Selinger 2001-2017
</metadata>
<g transform="translate(0.000000,1024.000000) scale(0.100000,-0.100000)"
fill="#000000" stroke="none">
<path d="M2965 8040 c-156 -18 -361 -100 -493 -199 -185 -137 -306 -329 -358
-566 -14 -62 -16 -314 -15 -2185 1 -2276 -2 -2173 51 -2330 21 -63 102 -230
127 -260 6 -8 28 -35 47 -60 20 -25 45 -54 56 -65 11 -12 20 -26 20 -33 0 -7
4 -11 9 -8 5 3 12 -1 15 -10 4 -9 9 -14 13 -10 9 9 54 -35 46 -47 -3 -5 0 -7
8 -5 15 6 69 -21 69 -34 0 -4 7 -8 16 -8 9 0 12 -5 8 -12 -4 -6 -3 -8 4 -5 5
4 18 4 27 1 13 -5 14 -9 4 -15 -8 -4 -10 -11 -6 -15 3 -4 14 -1 22 6 9 7 15 9
14 4 -4 -21 2 -34 16 -34 8 0 15 4 15 10 0 5 7 7 15 4 15 -6 22 -26 7 -21 -7
2 -12 -6 -12 -19 0 -4 12 1 26 11 25 16 25 16 14 -5 -9 -16 -9 -25 -1 -33 8
-8 11 -5 11 11 0 12 5 22 10 22 6 0 10 -5 10 -11 0 -8 5 -7 15 1 9 7 18 10 22
6 3 -3 1 -6 -5 -6 -6 0 -9 -7 -6 -15 4 -10 14 -13 33 -9 21 5 24 4 14 -7 -16
-16 -17 -29 -2 -29 5 0 7 5 4 10 -3 6 1 10 10 10 9 0 19 -9 22 -20 3 -11 12
-20 19 -20 15 0 19 20 7 36 -5 5 4 -3 20 -18 16 -16 34 -25 42 -22 9 4 15 0
15 -10 0 -9 7 -16 15 -16 8 0 15 5 15 10 0 6 4 10 9 10 5 0 7 -9 4 -20 -3 -11
0 -20 6 -20 6 0 11 10 11 21 0 18 2 19 15 9 8 -7 15 -9 15 -4 0 5 5 1 11 -8
13 -22 29 -23 29 -2 0 9 5 13 13 10 6 -3 20 -9 30 -12 9 -4 17 -10 17 -15 0
-13 28 -11 32 2 3 8 10 5 22 -6 13 -13 20 -15 29 -6 14 14 37 15 37 1 0 -5 -7
-10 -16 -10 -8 0 -12 -5 -9 -10 5 -8 11 -7 20 0 8 7 23 9 35 5 22 -7 27 4 8
23 -9 9 -9 12 0 12 7 0 12 -5 12 -10 0 -19 51 -32 82 -21 23 8 28 7 28 -7 1
-15 2 -15 13 -2 7 8 26 16 42 17 20 2 25 -1 16 -6 -10 -7 -10 -10 -1 -16 7 -4
16 -2 20 6 7 10 11 10 25 -1 13 -11 18 -11 24 -1 7 10 13 10 29 2 16 -9 27 -8
42 1 17 11 22 11 30 -1 7 -12 11 -12 24 -2 12 10 20 9 41 -5 24 -16 25 -16 19
1 -6 14 -3 16 15 10 13 -4 28 -1 38 7 13 10 17 10 20 1 6 -16 30 -17 35 -2 3
9 10 8 25 -1 18 -12 25 -11 47 3 23 15 25 15 19 1 -4 -12 -1 -15 13 -12 10 2
18 10 16 18 -2 10 3 9 22 -4 32 -20 46 -20 46 1 0 15 1 15 18 0 10 -10 24 -17
30 -17 7 0 12 -5 12 -11 0 -5 5 -7 10 -4 8 5 7 11 -1 21 -8 10 -8 14 0 14 6 0
11 -4 11 -9 0 -17 70 -18 80 -2 5 9 10 11 10 5 0 -18 40 -25 47 -8 4 11 7 11
20 -1 17 -18 29 -19 38 -5 5 8 12 7 22 -1 9 -8 17 -9 21 -3 8 11 22 12 40 1 7
-5 19 -2 28 7 19 20 25 20 18 1 -4 -9 0 -15 10 -15 10 0 13 5 9 18 -6 14 -4
15 9 5 8 -7 18 -10 21 -6 4 3 7 -1 7 -10 0 -17 11 -22 23 -10 4 3 2 12 -5 20
-9 11 -1 10 31 -3 36 -14 44 -15 51 -3 7 11 13 9 32 -6 13 -11 26 -24 30 -30
5 -6 8 -6 8 2 0 6 -5 15 -10 18 -6 4 -8 11 -4 16 4 6 14 3 25 -7 18 -16 19
-16 19 4 0 15 5 19 19 15 11 -3 22 -12 26 -21 5 -14 7 -14 18 0 6 9 23 19 37
23 22 7 23 6 12 -8 -9 -10 -10 -17 -2 -22 5 -3 10 -1 10 4 0 6 7 11 15 11 9 0
18 6 21 13 3 8 11 14 19 14 8 0 12 -4 9 -8 -2 -4 1 -11 7 -15 6 -3 15 0 20 7
7 11 12 12 28 2 11 -7 27 -10 36 -7 10 4 15 0 15 -10 0 -9 5 -16 10 -16 6 0
10 6 10 14 0 19 38 16 45 -4 6 -13 8 -12 21 4 13 19 14 19 34 1 18 -16 20 -16
26 -1 8 22 44 21 44 -1 1 -17 2 -17 14 0 12 15 18 17 36 7 15 -8 25 -8 34 -1
8 7 16 7 23 0 6 -6 18 -6 36 0 18 7 27 7 31 -2 3 -9 7 -8 15 3 8 11 11 12 11
2 0 -7 5 -10 10 -7 6 4 9 1 8 -6 -2 -6 3 -14 10 -16 6 -3 12 2 12 11 0 21 19
20 37 -1 13 -16 14 -15 8 10 -5 25 -4 26 14 15 15 -9 23 -9 35 1 11 9 16 10
16 2 0 -6 -5 -11 -11 -11 -5 0 -7 -4 -4 -10 4 -6 15 -4 30 6 17 11 29 13 42 6
12 -7 25 -7 35 -1 11 6 19 6 23 -1 4 -6 13 -5 27 3 16 9 22 9 25 0 3 -7 11
-13 18 -13 7 0 15 6 18 13 3 9 9 9 26 -1 18 -10 26 -10 37 -1 11 9 14 7 14
-15 0 -14 4 -26 9 -26 4 0 6 12 3 28 -4 22 -2 25 8 15 9 -8 19 -9 31 -3 11 7
20 7 24 0 4 -7 12 -7 25 0 13 7 20 6 23 -3 3 -9 9 -9 24 -1 13 8 25 9 37 2 13
-8 21 -7 27 3 6 11 12 11 34 -1 23 -12 28 -12 35 0 6 8 10 11 10 6 0 -5 7 -3
15 4 13 11 14 10 10 -3 -4 -8 -2 -18 4 -22 6 -3 11 1 11 9 0 19 11 20 29 3 11
-9 14 -9 18 1 6 14 33 16 33 2 0 -14 28 -12 33 3 3 9 7 9 20 -1 14 -12 19 -12
32 2 18 17 40 22 30 7 -11 -19 17 -23 36 -5 18 16 19 16 19 0 0 -10 6 -16 13
-13 6 2 11 9 10 15 -4 17 32 8 39 -11 5 -11 13 -15 20 -11 9 6 9 9 0 12 -7 2
-12 11 -12 19 0 13 2 13 16 2 9 -8 27 -12 40 -11 13 2 24 -1 24 -7 0 -17 28
-13 32 4 3 13 6 13 32 0 36 -19 37 -19 29 2 -6 17 -5 17 14 0 18 -16 24 -17
43 -5 18 10 24 10 27 1 6 -15 33 -17 33 -3 0 13 33 13 47 -1 8 -8 13 -8 17 0
4 6 2 11 -3 11 -6 0 -11 5 -11 11 0 8 4 8 15 -1 8 -6 19 -9 25 -5 5 3 10 -1
10 -10 0 -12 5 -15 16 -11 9 3 19 6 22 6 4 0 0 5 -8 10 -13 8 -12 10 3 10 10
0 20 -7 23 -15 10 -24 26 -17 18 7 -6 21 -5 22 11 8 15 -13 19 -12 30 3 10 14
16 15 38 4 15 -6 27 -15 27 -19 0 -5 4 -8 10 -8 5 0 9 10 7 21 -1 12 4 24 11
26 7 3 11 -1 10 -7 -2 -7 3 -15 10 -17 6 -3 12 2 12 11 0 16 32 18 46 3 4 -4
12 -7 17 -7 6 0 8 3 4 6 -3 3 4 15 15 26 11 11 23 16 26 12 4 -3 1 -9 -5 -11
-7 -3 -13 -9 -13 -15 0 -6 6 -6 15 2 8 7 23 9 37 5 21 -7 21 -7 5 9 -20 21
-22 27 -4 20 8 -3 20 2 27 11 10 12 16 13 27 3 13 -10 20 -7 40 16 17 20 33
28 56 28 37 0 72 21 62 37 -8 14 1 14 25 1 13 -7 21 -7 25 0 3 5 -2 10 -12 10
-17 1 -17 1 0 11 13 8 22 7 32 -1 9 -7 15 -8 20 0 3 5 14 10 25 10 14 0 17 5
13 21 -5 17 -2 20 13 15 14 -4 22 1 29 17 6 12 18 21 27 21 10 -1 16 2 13 6
-9 14 26 35 67 39 4 1 5 8 2 16 -4 8 -2 15 4 15 6 0 13 -6 15 -12 3 -7 6 0 6
16 1 20 5 27 15 23 9 -4 13 -1 10 6 -2 7 6 22 18 34 80 72 178 236 227 381 53
158 52 66 49 2362 l-3 2125 -23 75 c-94 307 -306 543 -584 650 -179 69 13 64
-2328 66 -1163 1 -2146 -2 -2185 -6z m3858 -642 c15 -12 103 -200 214 -458 25
-58 105 -241 179 -406 156 -353 152 -289 34 -554 -414 -929 -412 -925 -435
-934 -9 -3 -137 -6 -285 -6 -222 0 -270 2 -280 15 -13 16 40 144 379 917 50
113 91 219 91 235 0 15 -16 64 -36 108 -19 44 -55 130 -81 190 -25 61 -83 198
-128 305 -234 554 -236 559 -224 582 9 17 33 18 282 18 203 0 277 -3 290 -12z
m-3529 -595 c144 -75 333 -174 420 -221 88 -47 165 -85 170 -85 10 0 330 167
719 375 131 69 170 81 181 52 3 -9 6 -134 6 -279 0 -236 -2 -265 -17 -283 -18
-20 -40 -33 -221 -127 -51 -27 -89 -52 -85 -56 4 -4 69 -40 143 -79 74 -39
145 -82 158 -96 22 -25 22 -30 22 -279 0 -231 -2 -255 -17 -264 -19 -10 -136
47 -664 326 l-217 113 -223 -118 c-418 -222 -636 -332 -656 -332 -12 0 -24 7
-27 16 -3 9 -6 123 -6 255 0 188 3 246 14 267 10 19 47 46 113 82 163 89 203
111 203 115 0 2 -70 40 -155 85 -85 45 -160 90 -165 100 -11 20 -14 527 -4
554 3 9 16 16 27 16 12 0 138 -61 281 -137z m2536 -1921 c124 -63 270 -138
325 -167 55 -29 233 -121 395 -205 771 -399 740 -381 768 -435 20 -39 29 -246
13 -330 -21 -111 8 -91 -566 -389 -104 -55 -260 -136 -345 -181 -369 -196
-827 -433 -846 -439 -14 -4 -28 -1 -38 9 -14 14 -16 50 -16 263 0 218 3 252
19 287 10 22 27 48 37 57 19 17 181 104 702 379 160 84 292 156 292 159 0 3
-199 106 -441 230 -242 124 -470 243 -507 265 -102 61 -102 62 -102 352 0 239
0 242 22 257 13 9 31 13 43 10 11 -3 121 -58 245 -122z m-1682 86 c9 -9 12
-90 12 -305 0 -161 3 -293 6 -293 3 0 18 8 32 19 34 23 432 238 479 257 30 13
38 13 57 1 20 -14 218 -393 231 -444 9 -34 -19 -55 -269 -193 -124 -69 -226
-127 -226 -130 0 -3 103 -59 228 -124 125 -66 235 -126 245 -134 9 -8 17 -25
17 -38 0 -35 -207 -441 -231 -454 -27 -15 -41 -10 -234 95 -143 78 -299 160
-327 173 -5 2 -8 -125 -8 -282 0 -283 0 -285 -22 -300 -34 -24 -489 -24 -512
0 -14 13 -16 55 -16 300 0 156 -4 284 -8 284 -5 0 -109 -55 -233 -121 -123
-67 -241 -130 -262 -141 -65 -35 -74 -26 -192 214 -58 117 -105 223 -105 235
0 33 39 59 268 178 116 61 212 113 212 116 0 3 -78 48 -172 99 -287 154 -302
163 -312 193 -9 24 3 54 97 241 70 142 114 220 131 231 24 16 30 14 257 -110
127 -70 246 -135 263 -146 17 -10 37 -19 44 -19 9 0 12 65 12 293 0 215 3 296
12 305 17 17 509 17 526 0z m3182 -2888 c0 -5 -2 -10 -4 -10 -3 0 -8 5 -11 10
-3 6 -1 10 4 10 6 0 11 -4 11 -10z"/>
<path d="M2530 2200 c0 -5 5 -10 10 -10 6 0 10 5 10 10 0 6 -4 10 -10 10 -5 0
-10 -4 -10 -10z"/>
<path d="M7368 2063 c7 -3 16 -2 19 1 4 3 -2 6 -13 5 -11 0 -14 -3 -6 -6z"/>
<path d="M3190 1960 c0 -5 5 -10 10 -10 6 0 10 5 10 10 0 6 -4 10 -10 10 -5 0
-10 -4 -10 -10z"/>
<path d="M4065 1950 c-3 -5 -1 -10 4 -10 6 0 11 5 11 10 0 6 -2 10 -4 10 -3 0
-8 -4 -11 -10z"/>
<path d="M4880 1950 c0 -5 5 -10 10 -10 6 0 10 5 10 10 0 6 -4 10 -10 10 -5 0
-10 -4 -10 -10z"/>
<path d="M4940 1950 c0 -5 5 -10 11 -10 5 0 7 5 4 10 -3 6 -8 10 -11 10 -2 0
-4 -4 -4 -10z"/>
<path d="M5591 1944 c0 -11 3 -14 6 -6 3 7 2 16 -1 19 -3 4 -6 -2 -5 -13z"/>
<path d="M3710 1940 c0 -5 5 -10 11 -10 5 0 7 5 4 10 -3 6 -8 10 -11 10 -2 0
-4 -4 -4 -10z"/>
<path d="M4230 1940 c0 -5 5 -10 10 -10 6 0 10 5 10 10 0 6 -4 10 -10 10 -5 0
-10 -4 -10 -10z"/>
<path d="M5760 1939 c0 -5 5 -7 10 -4 6 3 10 8 10 11 0 2 -4 4 -10 4 -5 0 -10
-5 -10 -11z"/>
<path d="M6715 1940 c-3 -5 -1 -10 4 -10 6 0 11 5 11 10 0 6 -2 10 -4 10 -3 0
-8 -4 -11 -10z"/>
</g>
</svg>
